<svg width="128" height="128" viewBox="0 0 128 128" fill="none" xmlns="http://www.w3.org/2000/svg">
<rect x="5" y="5" width="118" height="118" rx="24" fill="#F1F9FF" stroke="#1C235E" stroke-width="10"/>
<path d="M88.356 85.752C88.356 88.344 87.708 90.72 86.412 92.88C85.116 95.04 83.388 96.768 81.228 98.064C79.068 99.36 76.692 100.008 74.1 100.008H53.364C50.772 100.008 48.36 99.36 46.128 98.064C43.968 96.768 42.24 95.04 40.944 92.88C39.648 90.72 39 88.344 39 85.752V82.512C39 81.144 39.468 79.992 40.404 79.056C41.412 78.048 42.6 77.544 43.968 77.544H46.992C48.288 77.544 49.404 78.048 50.34 79.056C51.348 79.992 51.852 81.144 51.852 82.512V85.752C51.852 86.112 51.996 86.472 52.284 86.832C52.644 87.12 53.004 87.264 53.364 87.264H74.1C74.46 87.264 74.784 87.12 75.072 86.832C75.36 86.472 75.504 86.112 75.504 85.752V74.304C75.504 73.368 75.072 72.9 74.208 72.9H53.364C50.772 72.9 48.36 72.252 46.128 70.956C43.968 69.66 42.24 67.932 40.944 65.772C39.648 63.54 39 61.128 39 58.536V41.364C39 38.7 39.648 36.288 40.944 34.128C42.24 31.968 43.968 30.24 46.128 28.944C48.36 27.648 50.772 27 53.364 27H74.1C76.692 27 79.068 27.648 81.228 28.944C83.388 30.24 85.116 31.968 86.412 34.128C87.708 36.288 88.356 38.7 88.356 41.364V85.752ZM75.504 58.644V41.364C75.504 40.356 75.036 39.852 74.1 39.852H53.364C53.004 39.852 52.644 39.996 52.284 40.284C51.996 40.572 51.852 40.932 51.852 41.364V58.536C51.852 58.968 51.996 59.328 52.284 59.616C52.644 59.904 53.004 60.048 53.364 60.048H74.208C75.072 60.048 75.504 59.58 75.504 58.644Z" fill="#1C235E"/>
</svg>
